PathFileType	4	(X/Y/Z)	T1_P1_NoVision_Movement_0_0-662.trc
DataRate	CameraRate	NumFrames	NumMarkers	Units	OrigDataRate	OrigDataStartFrame	OrigNumFrames
60	60	7	27	m	60	165	662
Frame#	Time	RHip			RKnee			RAnkle			RBigToe			RSmallToe			RHeel			LHip			LKnee			LAnkle			LBigToe			LSmallToe			LHeel			Neck			Head			Nose			RShoulder			RElbow			RWrist			RThumb			RIndex			RPinky			LShoulder			LElbow			LWrist			LThumb			LIndex			LPinky		
		X1	Y1	Z1	X2	Y2	Z2	X3	Y3	Z3	X4	Y4	Z4	X5	Y5	Z5	X6	Y6	Z6	X7	Y7	Z7	X8	Y8	Z8	X9	Y9	Z9	X10	Y10	Z10	X11	Y11	Z11	X12	Y12	Z12	X13	Y13	Z13	X14	Y14	Z14	X15	Y15	Z15	X16	Y16	Z16	X17	Y17	Z17	X18	Y18	Z18	X19	Y19	Z19	X20	Y20	Z20	X21	Y21	Z21	X22	Y22	Z22	X23	Y23	Z23	X24	Y24	Z24	X25	Y25	Z25	X26	Y26	Z26	X27	Y27	Z27
166	2.7666666666666666	-83.6367905026886	3890.6056318520364	-589.3479401697757	261.6341264345048	3995.134885456726	-524.2646625284456	624.6376641859653	4148.010277476908	-523.7035182198581	702.3768907587089	4096.15598990064	-479.245548958063	695.8266547000122	4068.2961009426235	-534.5200255613383	655.9239922711218	4193.060306678259	-531.6919986109601	-115.08712673798266	3927.5616956086337	-362.28601299978885	227.48564579806734	4009.827614208484	-354.22483834271276	577.6317958959361	4194.134362714848	-382.73391713685504	680.207950785235	4188.291246229045	-351.29221841149706	648.6741432979566	4249.406864768335	-334.2330448657081	605.7816229165286	4235.105251634879	-410.517210807959	-696.5483518420428	3747.232596496163	-490.54568463405474	-918.1848263486755	3565.8113697816257	-431.04605473907804	-763.3340122104034	3607.5880791898894	-425.5771881711923	-587.9821327895526	3695.769860142572	-631.3310885327821	-392.29869774767974	3571.6213183704995	-664.8901874670278	-560.9762375047926	3402.197277232237	-521.715089970414	-673.7698426486814	3420.7796701027773	-449.14674437262255	-682.9951590953227	3448.6021489392565	-474.7591054135764	-651.3311102967532	3352.5188200991684	-436.92243298424813	-645.165310583991	3917.030902320302	-389.54830014047917	-406.8653409370272	3996.3298926696552	-322.0834195643427	-146.43539468441364	3967.3726249283627	-228.33244972570517	-24.53304158737521	3963.431348254945	-212.97104402622094	-7.8615231748224605	3969.760125970028	-208.03386147199183	-12.5475633542679	4024.417953890399	-216.51424665458077
167	2.783333333333333	-83.5928587689247	3890.034118903492	-589.1067569283463	271.5371143166485	4020.07338987785	-545.5057360710913	624.7296982249948	4148.116458928259	-523.7905097427085	708.5586772352161	4099.4209231305385	-478.71176440142835	701.1305201135192	4089.637518600867	-550.1329273337	655.9201194914489	4192.837283397637	-531.5395678571756	-114.93559258679188	3927.2177027807616	-362.04336821072485	227.68311062858268	4009.481477647185	-353.9510931521303	577.4042692236478	4193.936550643884	-382.58563676167347	675.8748518176278	4158.844930402488	-346.32926053283626	650.7961476651745	4221.19419569297	-328.2524334555151	605.2991615375336	4229.675706050218	-407.3937878102741	-691.7146712342457	3748.252196060563	-490.14356983995424	-918.1093621907215	3565.6734023515432	-430.8319822177395	-762.9253493650873	3605.773864482026	-424.25674958292694	-588.0016772871992	3695.701444892231	-631.4648450152098	-391.25357470348285	3556.9713920863787	-651.1180675599524	-564.8653155415768	3401.2250545918023	-516.4305806081355	-667.2490336242719	3421.2540592032	-447.7246341435563	-682.1827940115737	3412.7377900054394	-458.4148122674906	-642.1088022518876	3328.458839945266	-428.8810622891111	-641.033329487411	3890.1532695263973	-384.2572430163015	-406.9045595205542	3996.5502575159976	-322.2070592523357	-146.58078369816914	3967.192114623848	-228.26038437168125	-24.90989351398897	3962.3488687723534	-212.63557503248708	-7.95508049500027	3969.129324331123	-207.8876410460461	-12.712955116009372	4023.703199636441	-216.2375704529003
168	2.8	-83.60928412302886	3890.4472561870634	-589.3797470489916	261.5732948657424	3995.274628640554	-524.3745320649757	624.6686721301446	4147.848860391148	-523.7373508404767	708.7477504335674	4099.861337344288	-478.81752943815684	701.3796948037576	4090.0673641518365	-550.3120561359597	651.3650737372799	4161.9605888921415	-524.7967601627678	-115.03567875710291	3927.30516230154	-362.18650405696894	233.31508418786296	4012.042232097323	-353.327882104524	577.4327097936782	4193.637667079995	-382.6416753964914	680.2513656024369	4187.953266841193	-351.2428335294936	648.634635807337	4249.103528492819	-334.0948355206676	611.1116188929481	4233.934896139532	-409.7186758232891	-691.6347481255685	3748.2150383975472	-490.13906098957506	-918.1656045756173	3565.6747899184647	-430.83201827599544	-762.6908944162757	3605.5279655004733	-424.19796232166186	-588.0554405544193	3695.8051232169437	-631.7428409226239	-396.22645673403935	3555.322624292475	-651.5026386209331	-564.8311429603169	3401.1851372825718	-516.5040068274845	-664.7820822543185	3423.8849654975156	-449.57721644625383	-677.1530085714269	3415.590361807393	-459.6776815289033	-640.2643219198504	3316.1958654279206	-418.7751587003737	-640.9761017289442	3889.976003032393	-384.16830787123314	-401.8271338145479	4000.239209242327	-323.6049623858885	-146.41705573012115	3967.303387785698	-228.32420448263287	-24.621422019941047	3963.070345758671	-212.90151054835877	-2.999085450468691	3973.209694836801	-209.4664344053996	-12.509960581839836	4024.0402333366105	-216.3393760253939
169	2.816666666666667	-83.60469357245984	3889.7783514920416	-589.0255454427167	261.53648217768375	3994.799385857341	-524.0315614944404	624.4913670549755	4148.468542084583	-523.7313277243892	695.8833210304892	4091.7532745408894	-476.8476004100636	704.8045481163051	4116.726217414284	-554.283660463448	655.7340390721994	4193.678814897884	-531.7854872617959	-114.835226023697	3927.3330101714637	-362.02172399213174	228.98869125098227	4036.991871043038	-358.99810687921695	577.4733313731665	4194.360324800526	-382.760310804249	680.2514722759996	4188.525369603256	-351.34234823961265	644.1434984495422	4250.902330687587	-335.0413555844641	605.2174741299295	4234.994742524783	-410.39011800646244	-691.7172137707237	3748.4455801307145	-490.35162267809835	-918.205317064325	3566.003556848363	-430.8991984586432	-762.8685991248772	3605.5962714767616	-424.11351219900683	-588.1023543099062	3695.902752978448	-631.8851100227754	-391.8021977403	3572.47994047644	-664.6893948309648	-564.7706930939164	3401.2307955451793	-516.4378296778289	-667.3440484787533	3421.620556476956	-447.73579021425087	-682.1517446379187	3413.5548367815863	-459.10816265242283	-641.996586020162	3328.7855610389274	-428.84874504830975	-638.6035601229179	3870.683584360631	-370.52641172913496	-406.48797923925474	3999.4519919771164	-323.7218463968784	-146.74440980939966	3967.241132604291	-228.27168199306664	-29.8994460120997	3962.151223963242	-212.9416014862561	-3.4484461795036463	3972.9135364438926	-209.3991297220048	-12.990711305498754	4023.5462724566446	-216.20830162194164
170	2.8333333333333335	-83.50662441853117	3890.041581429778	-589.016990918919	268.0133508941951	3998.075649250799	-523.6850696708142	624.7023906540576	4148.952249549024	-523.8934928653499	696.11771315104	4092.176881511475	-476.92856476483684	706.3214696300906	4099.501108407026	-541.0457551658518	655.8039931220012	4194.121189331806	-531.9329526280673	-109.72121004751529	3931.166219664927	-363.60289047826586	229.11440587984652	4037.0199922147003	-358.95773442333035	577.5910181327838	4194.366708597023	-382.77437632627334	680.2749998401516	4188.513627160307	-351.38579438940747	644.0055333157815	4250.7098933513425	-335.01292408801777	605.2314238081834	4234.813212592213	-410.3267619533055	-697.0474515575156	3747.0000492476383	-490.2246168966268	-918.2308939540454	3565.6998389841083	-430.7530415592594	-756.1850325718647	3591.9921903370014	-412.58923164314103	-592.9428246200556	3693.474393087255	-625.2411874379517	-391.0241552437859	3556.7999142266385	-651.1064984112146	-564.8108485796881	3400.967858617105	-516.2754202934203	-667.3819712648184	3420.402208287868	-446.82576884014094	-682.0889505814523	3412.648388390196	-458.5002118230016	-640.1122954619973	3314.779770835794	-417.5592553162616	-638.6409934681341	3870.526512796594	-370.3274414860275	-406.43132568115266	3999.3759833262934	-323.6868302542328	-146.65082289428932	3967.250787032552	-228.2814273115961	-24.527912486146317	3966.2159675630587	-214.61938107344537	-2.493581248117818	3976.1100946522756	-216.14270948605596	-12.962754588227517	4023.566988341944	-216.17731513289505
171	2.85	-83.49337251428773	3890.511195891596	-589.1884380511232	270.8787668870438	4018.9661526189816	-538.9456403898736	624.4957729948691	4148.497933784777	-523.7333222500007	690.6932843550961	4092.5748296245647	-477.6571428857835	701.2746140715644	4090.079162321782	-550.0251774504042	655.6736006723265	4193.51196776379	-531.6670370524405	-104.29741971626291	3933.2187840794427	-363.0317204276197	229.1526363664589	4037.4707819326154	-359.2421667280664	577.4909470121124	4194.24363751562	-382.8327372689774	680.3924568882292	4189.325965159723	-351.8476699053239	645.2967868534673	4252.268573072128	-341.4344340310282	605.1304899527324	4234.573925674509	-410.293755659508	-697.0296397300707	3747.018743830448	-490.1339719654188	-923.8300815451012	3589.034399069115	-436.34822187311414	-756.1928147594466	3591.6467420726867	-406.4847907529135	-592.9393915562196	3693.7099151122775	-625.4115654401165	-391.1059035334414	3556.534050309762	-650.9855597226469	-564.8640594075675	3400.8406196989827	-516.2397513223565	-667.4834931993031	3420.8410962910734	-447.1226866111403	-682.8373135812855	3372.407742027937	-423.9529885391001	-648.9388622216765	3337.319778341517	-424.45102828218586	-642.6333555036333	3897.028297287817	-375.46802325928195	-406.4628542611035	3999.536509570497	-323.7047074246677	-146.6023091561501	3967.3000932897307	-228.3157013295118	-24.41934872126374	3966.2386948968433	-214.7133056709337	-2.392459887265769	3976.132792904578	-216.21537236689386	-12.781377258776947	4023.6255603683094	-216.21908386875998
172	2.8666666666666667	-83.5794924034968	3890.121139517823	-589.0291919429118	261.81228656019135	3995.417074378696	-524.4014033243803	624.7113374812952	4148.708859737451	-523.8970482803018	702.776930153423	4096.123057071772	-478.96890910560427	702.4006764250854	4100.590589238657	-548.366390377922	655.7445393191992	4193.439909038728	-531.6656139980657	-109.76614622485417	3931.158642937365	-363.6142135956787	229.10459975798312	4037.3569756301745	-359.2194491116474	577.5817054475112	4194.2700823034465	-382.75533137243025	680.3335395035656	4188.4900797900655	-351.50371125277195	645.2164105502094	4251.683359612498	-341.19588428682954	605.2364536906637	4234.59934936243	-410.17625275749725	-697.0589906865614	3747.1405453516923	-490.22789441965364	-918.3018859473345	3565.203563491956	-430.53024008380964	-756.1589190513412	3591.7699089490607	-406.54698906912813	-592.9066378235384	3693.482707392044	-625.077228805659	-391.0853964577024	3556.6229433169187	-651.0635179027258	-564.8900287004428	3401.1695935086036	-516.4642281065105	-667.5179690241813	3420.053483525436	-446.3894090303339	-683.0532894297997	3371.619548206229	-423.31266777412844	-648.8107582928249	3336.6890908196915	-424.2117630457907	-642.6956152813484	3897.144554749185	-375.54445164921304	-407.02482533613136	3996.470062249597	-322.1180712592822	-146.65044387730637	3967.5444119855524	-228.45725825589128	-29.686444127892955	3962.5902636666324	-213.10320684730107	-2.46494013015749	3976.190065585746	-216.20953866630597	-12.966107290403215	4024.1267047663578	-216.46394738656497
